<svg xmlns="http://www.w3.org/2000/svg" viewBox="0 0 960 540"><rect width="960" height="540" rx="36" fill="#F0F9FF"/><text x="480" y="62" text-anchor="middle" font-size="34" font-weight="900" fill="#075985">MySQL 大仓库 + MyBatis 翻译员</text><rect x="580" y="126" width="300" height="300" rx="30" fill="#DCFCE7" stroke="#16A34A" stroke-width="7"/><text x="730" y="172" text-anchor="middle" font-size="30" font-weight="900" fill="#166534">MySQL 大仓库</text><g fill="#FEF3C7" stroke="#F59E0B" stroke-width="4"><rect x="620" y="210" width="92" height="58" rx="12"/><rect x="748" y="210" width="92" height="58" rx="12"/><rect x="620" y="300" width="92" height="58" rx="12"/><rect x="748" y="300" width="92" height="58" rx="12"/></g><g font-size="18" font-weight="800" fill="#92400E"><text x="666" y="246" text-anchor="middle">用户</text><text x="794" y="246" text-anchor="middle">订单</text><text x="666" y="336" text-anchor="middle">库存</text><text x="794" y="336" text-anchor="middle">支付</text></g><circle cx="210" cy="235" r="42" fill="#FDE68A" stroke="#92400E" stroke-width="4"/><rect x="168" y="272" width="84" height="92" rx="22" fill="#60A5FA"/><text x="210" y="400" text-anchor="middle" font-size="22" font-weight="800" fill="#075985">Service 办事员</text><circle cx="415" cy="228" r="38" fill="#FBCFE8" stroke="#9D174D" stroke-width="4"/><rect x="377" y="262" width="76" height="92" rx="20" fill="#F472B6"/><rect x="345" y="130" width="140" height="62" rx="16" fill="#FFFFFF" stroke="#DB2777" stroke-width="4"/><text x="415" y="168" text-anchor="middle" font-size="22" font-weight="800" fill="#9D174D">SQL 纸条</text><text x="415" y="394" text-anchor="middle" font-size="22" font-weight="800" fill="#9D174D">MyBatis 翻译员</text><path d="M260 245 C310 220 335 198 374 178" fill="none" stroke="#0284C7" stroke-width="8" stroke-linecap="round"/><path d="M485 172 C530 160 555 165 588 190" fill="none" stroke="#16A34A" stroke-width="8" stroke-linecap="round"/></svg>