<svg xmlns="http://www.w3.org/2000/svg" viewBox="0 0 960 540" role="img" aria-labelledby="title desc">
  <title id="title">仓库管理员对应Mapper / DAO的卡通场景图</title>
  <desc id="desc">以网上玩具店为背景，展示仓库管理员：查仓库。</desc>
  <rect width="960" height="540" rx="36" fill="#F5F3FF"/>
  <circle cx="90" cy="88" r="38" fill="#FDE68A"/>
  <path d="M0 440 C190 390 305 474 478 426 C650 378 770 438 960 392 L960 540 L0 540Z" fill="#EDE9FE" opacity=".8"/>
  <text x="480" y="62" text-anchor="middle" font-size="34" font-family="Arial, sans-serif" font-weight="900" fill="#7C3AED">仓库管理员</text>
  <text x="480" y="104" text-anchor="middle" font-size="22" font-family="Arial, sans-serif" font-weight="700" fill="#334155">Mapper / DAO</text>
  
    <rect x="360" y="155" width="360" height="230" rx="30" fill="#fff" stroke="#7C3AED" stroke-width="7"/>
    <rect x="405" y="220" width="82" height="72" rx="12" fill="#EDE9FE"/>
    <rect x="514" y="220" width="82" height="72" rx="12" fill="#EDE9FE"/>
    <rect x="625" y="220" width="50" height="165" rx="14" fill="#7C3AED" opacity=".85"/>
    <path d="M338 157 L540 72 L742 157" fill="#EDE9FE" stroke="#7C3AED" stroke-width="7" stroke-linejoin="round"/>
    <rect x="420" y="330" width="165" height="36" rx="12" fill="#EDE9FE"/>
  
  <rect x="90" y="435" width="780" height="62" rx="20" fill="#fff" opacity=".95" stroke="#7C3AED" stroke-width="3"/>
  <text x="480" y="474" text-anchor="middle" font-size="21" font-family="Arial, sans-serif" font-weight="700" fill="#334155">查仓库</text>
</svg>