<svg xmlns="http://www.w3.org/2000/svg" viewBox="0 0 960 540" role="img" aria-labelledby="title desc">
  <title id="title">新增箱子对应insert的卡通场景图</title>
  <desc id="desc">以网上玩具店为背景，展示新增箱子：放入新资料。</desc>
  <rect width="960" height="540" rx="36" fill="#F0FDF4"/>
  <circle cx="90" cy="88" r="38" fill="#FDE68A"/>
  <path d="M0 440 C190 390 305 474 478 426 C650 378 770 438 960 392 L960 540 L0 540Z" fill="#DCFCE7" opacity=".8"/>
  <text x="480" y="62" text-anchor="middle" font-size="34" font-family="Arial, sans-serif" font-weight="900" fill="#16A34A">新增箱子</text>
  <text x="480" y="104" text-anchor="middle" font-size="22" font-family="Arial, sans-serif" font-weight="700" fill="#334155">insert</text>
  
    <rect x="360" y="155" width="360" height="230" rx="30" fill="#fff" stroke="#16A34A" stroke-width="7"/>
    <rect x="405" y="220" width="82" height="72" rx="12" fill="#DCFCE7"/>
    <rect x="514" y="220" width="82" height="72" rx="12" fill="#DCFCE7"/>
    <rect x="625" y="220" width="50" height="165" rx="14" fill="#16A34A" opacity=".85"/>
    <path d="M338 157 L540 72 L742 157" fill="#DCFCE7" stroke="#16A34A" stroke-width="7" stroke-linejoin="round"/>
    <rect x="420" y="330" width="165" height="36" rx="12" fill="#DCFCE7"/>
  <circle cx="280" cy="255" r="48" fill="#FDE68A" stroke="#92400E" stroke-width="5"/><rect x="235" y="300" width="90" height="100" rx="24" fill="#16A34A"/>
  <rect x="90" y="435" width="780" height="62" rx="20" fill="#fff" opacity=".95" stroke="#16A34A" stroke-width="3"/>
  <text x="480" y="474" text-anchor="middle" font-size="21" font-family="Arial, sans-serif" font-weight="700" fill="#334155">放入新资料</text>
</svg>